# xmcd
#
# Track frame offsets: 
#        150
#        15385
#        32005
#        52740
#        67280
#        89915
#        112695
#        130897
#        150937
#        170812
#
# Disc length: 2466 seconds
#
# Revision: 0
# Processed by: cddbd v1.5.2PL0 Copyright (c) Steve Scherf et al.
# Submitted via: ExactAudioCopy v0.99pb5
#
DISCID=7a09a00a
DTITLE=Wavecage - homegroAn
DYEAR=2000
DGENRE=Rock and Roll
TTITLE0=Big Scar
TTITLE1=Livin' Out of a Car
TTITLE2=Cruisin' Out
TTITLE3=The Solution
TTITLE4=Old Enough (to Know Better)
TTITLE5=The Strange Of Life
TTITLE6=Bloodsuckin' Blues
TTITLE7=I Don't Know Why
TTITLE8=Anodyne
TTITLE9=Cracked Record
EXTD=
EXTT0=
EXTT1=
EXTT2=
EXTT3=
EXTT4=
EXTT5=
EXTT6=
EXTT7=
EXTT8=
EXTT9=
PLAYORDER=
